<svg viewBox="0 0 73 71" fill="none" xmlns="http://www.w3.org/2000/svg">
<path d="M17.8737 39.7604L31.1717 53.016L25.8548 58.3167L31.1792 63.6212L25.8585 68.9219L16.5454 59.6438L5.90028 70.249L0.57959 64.9483L11.2247 54.3393L1.91164 45.0649L7.23234 39.7642L12.553 45.0612L17.8737 39.7604ZM2.63411 0.750977L15.9772 0.762223L60.443 45.0649L65.7675 39.7642L71.0882 45.0649L61.7788 54.3431L72.4202 64.9483L67.0995 70.249L56.4544 59.6438L47.1413 68.9219L41.8206 63.6212L47.1413 58.3167L2.6454 13.9878L2.63411 0.750977ZM57.0339 0.750977L70.3657 0.762223L70.3732 13.9691L55.1223 29.159L41.8168 15.9072L57.0339 0.750977Z" fill="#D9D9D9"/>
</svg>
