<svg viewBox="0 0 55 55" fill="none" xmlns="http://www.w3.org/2000/svg">
<path fill-rule="evenodd" clip-rule="evenodd" d="M27.5 55C42.6878 55 55 42.6878 55 27.5C55 12.3122 42.6878 0 27.5 0C12.3122 0 0 12.3122 0 27.5C0 42.6878 12.3122 55 27.5 55ZM43.6753 22.4482L36.6426 15.5553C36.4612 15.3776 36.2153 15.2778 35.9589 15.2778H32.3778L35.1214 22.4482H43.6753ZM11 24.356H19.829L25.1263 41.6625L11 24.356ZM29.8736 41.6625L35.171 24.356H44L29.8736 41.6625ZM22.6221 15.2778L19.8786 22.4482H11.3247L18.3574 15.5553C18.5387 15.3776 18.7847 15.2778 19.041 15.2778H22.6221ZM33.1388 24.356H21.8612L27.5 42.7778L33.1388 24.356ZM30.2989 15.2778L33.0424 22.4482H21.9576L24.7011 15.2778H30.2989Z" fill="black"/>
</svg>
