<svg viewBox="0 0 73 71" fill="none" xmlns="http://www.w3.org/2000/svg">
<path d="M69.3756 15.6203L59.329 18.4931L58.506 18.2578V4.84594L59.329 4.61065L69.3756 7.48345C70.4855 7.80082 71.6348 7.15426 71.9493 6.05254C72.2652 4.94609 71.6251 3.79297 70.5195 3.47684L59.9009 0.440564C59.5271 0.333614 59.1308 0.333614 58.7571 0.440564C57.0044 0.941703 50.6214 2.76694 48.1385 3.47684C47.2447 3.73241 46.6286 4.54995 46.6286 5.48014V5.926H24.8251C25.5731 7.70388 25.952 9.59564 25.952 11.5513C25.952 13.5056 25.5731 15.396 24.8251 17.1766H46.6286V17.6239C46.6286 18.554 47.2447 19.3716 48.1385 19.6272C49.1114 19.9054 57.5157 22.3086 58.7571 22.6634C59.1301 22.7701 59.5265 22.7705 59.9009 22.6634L70.5195 19.6272C71.625 19.311 72.2652 18.1579 71.9493 17.0515C71.6334 15.9449 70.4815 15.3037 69.3756 15.6203Z" fill="none"/>
<path d="M11.3792 1.13449C5.63976 1.13449 0.970215 5.80766 0.970215 11.5517C0.970215 17.3695 5.6578 21.9688 11.3792 21.9688C17.1024 21.9688 21.7882 17.3284 21.7882 11.5517C21.7884 5.74516 17.0529 1.13449 11.3792 1.13449Z" fill="none"/>
<path d="M20.5463 51.5778L20.0103 58.0691H52.9894L52.4534 51.5778C52.3642 50.4973 51.4619 49.6659 50.3787 49.6659H37.3246L21.4289 22.1113C18.6408 24.784 14.7952 26.2865 10.7604 26.1227L24.3436 49.666H22.6211C21.5378 49.6659 20.6356 50.4972 20.5463 51.5778Z" fill="none"/>
<path d="M53.8414 68.3841L53.3335 62.2359H19.6661L19.1585 68.3841C19.1106 68.9646 19.3075 69.5386 19.7018 69.967C20.096 70.3955 20.6514 70.6392 21.2333 70.6392H51.7666C52.3485 70.6392 52.9039 70.3955 53.2981 69.967C53.6922 69.5386 53.8893 68.9646 53.8414 68.3841Z" fill="none"/>
</svg>


