<svg viewBox="0 0 55 55" fill="none" xmlns="http://www.w3.org/2000/svg">
<path d="M27.5 0C12.3122 0 0 12.3122 0 27.5C0 42.6878 12.3122 55 27.5 55C42.6878 55 55 42.6878 55 27.5C55 12.3122 42.6878 0 27.5 0ZM30.6799 41.5547V44.4464H24.515V41.5716C19.4887 40.655 16.375 37.3484 16.375 32.3426H24.2638C24.2638 34.2101 25.79 35.1428 27.4978 35.1428C29.0993 35.1428 30.6254 34.3277 30.6254 32.9041C30.6254 31.1753 28.4841 30.6742 25.8588 30.0253C21.8502 29.0291 16.7462 27.7915 16.7462 21.5003C16.7462 17.0205 19.5228 14.1139 24.2378 13.2707V10.5537H30.4027V13.299C35.0887 14.2131 37.7303 17.3011 37.7303 21.8977L30.0703 21.915C30.0703 20.2951 28.774 19.5039 27.1901 19.5039C25.814 19.5039 24.5002 20.0703 24.5002 21.2639C24.5002 22.8455 26.5767 23.3639 29.2064 24.0306C33.2914 25.0853 38.6256 26.4231 38.6256 32.7517C38.6253 37.6928 35.4345 40.6736 30.6799 41.5547Z" fill="black"/>
</svg>
