<svg width="81" height="75" viewBox="0 0 81 75" fill="none" xmlns="http://www.w3.org/2000/svg">
<path d="M36.5439 42.1826C38.153 41.1773 39.6103 39.9512 40.8731 38.5456L45.4256 41.1746L49.5709 33.9946L45.0275 31.3713C45.6051 29.6076 45.9449 27.7369 46.0086 25.7978L51.1775 24.8864L49.7373 16.7218L44.5694 17.6331C43.8552 15.863 42.897 14.2171 41.735 12.7379L45.1132 8.71248L38.7622 3.38373L35.3869 7.40577C33.7383 6.52234 31.953 5.86195 30.0714 5.46568V0.220215H21.7809V5.46568C19.8992 5.86195 18.1139 6.52234 16.4651 7.40577L13.09 3.38373L6.73897 8.71267L10.1168 12.7381C8.95497 14.2173 7.99681 15.8634 7.2826 17.6333L2.11472 16.722L0.675293 24.8866L5.84336 25.798C5.90706 27.7373 6.24705 29.6076 6.82473 31.3718L2.28091 33.9949L6.42636 41.1748L10.9791 38.5465C12.2415 39.9516 13.6988 41.1778 15.3081 42.1831L13.5109 47.12L21.3017 49.9551L23.0964 45.0249C24.0213 45.1558 24.9657 45.2252 25.9262 45.2252C26.8866 45.2252 27.8313 45.1561 28.7562 45.0249L30.5506 49.9555L38.341 47.1196L36.5439 42.1826ZM25.9258 35.7173C20.0878 35.7173 15.3383 30.9679 15.3383 25.1298C15.3383 19.292 20.0878 14.5423 25.9258 14.5423C31.7638 14.5423 36.5133 19.292 36.5133 25.1298C36.5133 30.9679 31.764 35.7173 25.9258 35.7173Z" fill="#D9D9D9"/>
<path d="M72.1793 48.4083L68.6054 49.5644C67.9239 48.3799 67.0816 47.3075 66.1116 46.3738L68.1089 43.1862L63.08 40.0354L61.0839 43.2204C59.8281 42.7568 58.4974 42.4649 57.1238 42.3703L56.6056 38.6511L50.7277 39.4705L51.2459 43.1896C49.9512 43.656 48.7502 44.3014 47.6688 45.0903L44.8789 42.572L40.9025 46.9774L43.6947 49.4986C43.0174 50.6619 42.5011 51.9234 42.1697 53.2495L38.4154 53.1137L38.2007 59.0441L41.9548 59.1802C42.1918 60.5489 42.6177 61.8406 43.2018 63.0347L40.2397 65.3437L43.8877 70.0243L46.8557 67.7113C47.8898 68.5825 49.0445 69.3078 50.2843 69.862L49.4975 73.5403L55.3012 74.7801L56.0871 71.1075C56.7557 71.1094 57.4318 71.064 58.1126 70.9693C58.7937 70.8746 59.4569 70.7316 60.0991 70.5481L61.8591 73.8664L67.1023 71.0859L65.3404 67.7637C66.3824 66.8917 67.2934 65.8779 68.0504 64.7571L71.5373 66.1711L73.7672 60.6712L70.2869 59.2599C70.5215 57.9526 70.5776 56.5927 70.4322 55.211L74.0068 54.0542L72.1793 48.4083ZM57.1742 64.2285C53.0345 64.8048 49.1976 61.907 48.6213 57.7678C48.0438 53.6284 50.9424 49.7912 55.082 49.2151C59.2212 48.6378 63.057 51.5362 63.6349 55.676C64.2109 59.8149 61.3132 63.651 57.1742 64.2285Z" fill="#D9D9D9"/>
<path d="M80.1855 27.8417L80.3247 23.1585L77.361 23.0705C77.1752 22.0383 76.8432 21.0163 76.3561 20.0336L78.6835 18.1948L75.7797 14.5193L73.4527 16.3572C72.6227 15.6676 71.7047 15.1053 70.7301 14.6809L71.3318 11.7733L66.7448 10.8233L66.142 13.729C65.085 13.7305 64.0207 13.8805 62.9777 14.1876L61.5723 11.5775L57.4471 13.7992L58.8524 16.4097C58.0228 17.1106 57.3109 17.9184 56.7273 18.7991L53.9709 17.702L52.2385 22.0551L54.9972 23.1539C54.8156 24.2013 54.7802 25.2756 54.8994 26.3483L52.0835 27.2796L53.5537 31.7282L56.3697 30.7972C56.9211 31.7453 57.5916 32.5838 58.3522 33.3074L56.7947 35.8303L60.7808 38.2919L62.3417 35.7645C63.3466 36.125 64.4006 36.3446 65.4702 36.4136L65.8984 39.352L70.5349 38.6749L70.1078 35.7401C70.6025 35.5581 71.0909 35.3391 71.5689 35.0816C72.0473 34.8246 72.4989 34.5365 72.9233 34.2241L75.1382 36.1961L78.2542 32.6977L76.0378 30.7234C76.5692 29.7917 76.9648 28.7907 77.2173 27.7535L80.1855 27.8417ZM69.0218 30.3511C66.1162 31.9155 62.4799 30.825 60.9163 27.9204C59.3514 25.0155 60.4421 21.3785 63.3478 19.8149C66.2519 18.2502 69.888 19.3414 71.4529 22.2464C73.0163 25.1515 71.9264 28.7865 69.0218 30.3511Z" fill="#D9D9D9"/>
</svg>
