<svg width="81" height="81" viewBox="0 0 81 81" fill="none" xmlns="http://www.w3.org/2000/svg">
<path d="M79.2494 26.8335L41.9138 1.11336C41.0642 0.529269 39.9424 0.529269 39.0895 1.11336L1.75388 26.8335C1.07686 27.2981 0.675293 28.0647 0.675293 28.8845V77.006C0.675293 78.8379 2.16208 80.3247 3.99402 80.3247H10.6315V40.5C10.6315 38.6681 12.1183 37.1813 13.9502 37.1813H67.0498C68.8817 37.1813 70.3685 38.6681 70.3685 40.5V80.3247H77.006C78.8379 80.3247 80.3247 78.8379 80.3247 77.006V28.8845C80.3247 28.0647 79.9231 27.2981 79.2494 26.8335Z" fill="#D9D9D9"/>
<path d="M38.2186 53.7146C38.4091 51.6442 39.1434 49.7324 40.2776 48.1158C39.3552 43.925 35.6158 40.7785 31.1536 40.7785C26.002 40.7785 21.8097 44.9709 21.8097 50.1241C21.8097 54.6084 24.9856 58.3625 29.2066 59.2611C31.3302 56.3673 34.5315 54.3222 38.2186 53.7146ZM27.4159 52.3482C27.4159 52.0081 27.6767 51.7456 28.0177 51.7456H29.9352V51.2975L29.6727 50.8494H28.0169C27.6759 50.8494 27.415 50.5869 27.415 50.2467C27.415 49.9065 27.6759 49.6441 28.0169 49.6441H28.9597L26.9203 46.2915C26.8124 46.1058 26.7045 45.8744 26.7045 45.6577C26.7045 44.8081 27.4927 44.5301 28.0324 44.5301C28.6817 44.5301 28.9752 45.0404 29.084 45.2562L31.1544 49.1968L33.2232 45.2562C33.3336 45.0404 33.6255 44.5301 34.2732 44.5301C34.8145 44.5301 35.6019 44.809 35.6019 45.6577C35.6019 45.8744 35.494 46.1058 35.3869 46.2906L33.3467 49.6441H34.2887C34.628 49.6441 34.8905 49.9065 34.8905 50.2467C34.8905 50.5869 34.628 50.8494 34.2887 50.8494H32.6361L32.3736 51.2975V51.7456H34.2895C34.6289 51.7456 34.8913 52.0081 34.8913 52.3482C34.8913 52.6884 34.6289 52.9509 34.2895 52.9509H32.3736V54.48C32.3736 55.2216 31.9247 55.7164 31.1544 55.7164C30.3817 55.7164 29.9344 55.2216 29.9344 54.48V52.9509H28.0169C27.6759 52.9509 27.4159 52.6884 27.4159 52.3482Z" fill="#D9D9D9"/>
<path d="M49.8456 45.4509C45.1282 45.4509 41.2261 48.9686 40.5981 53.5167C42.3815 53.5298 44.0807 53.8822 45.6475 54.5037C45.7513 54.2649 45.9655 54.1153 46.2992 54.1153H46.623C46.2992 53.6516 46.1602 53.0645 46.1602 52.4619C46.1602 50.5468 47.8594 49.2025 50.0377 49.2025C52.7443 49.2025 54.0559 50.6548 54.0559 51.8601C54.0559 52.5559 53.5768 52.9419 52.8964 52.9419C51.5374 52.9419 52.3706 51.0571 50.2855 51.0571C49.3746 51.0571 48.5094 51.5984 48.5094 52.6017C48.5094 53.1275 48.7711 53.6525 49.0189 54.1161H50.7033C51.3362 54.1161 51.6617 54.3483 51.6617 54.8578C51.6617 55.3672 51.3371 55.5986 50.7033 55.5986H49.4817C49.5291 55.7229 49.561 55.8308 49.561 55.9698C49.561 56.2192 49.4989 56.4662 49.4024 56.7074C49.9077 57.1244 50.3738 57.5873 50.8162 58.0705C51.2447 58.1572 51.6265 58.257 52.0795 58.257C52.3404 58.257 52.9774 58.0869 53.2219 58.0869C53.7926 58.0869 54.1181 58.5195 54.1181 59.0747C54.1181 59.9464 53.338 60.325 52.5342 60.3773C53.0673 61.2727 53.5113 62.2245 53.8392 63.2311C56.9964 61.7306 59.1911 58.5186 59.1911 54.7948C59.1895 49.6432 54.9971 45.4509 49.8456 45.4509Z" fill="#D9D9D9"/>
<path d="M41.119 68.6427V72.4663C42.2761 72.3894 43.4944 71.8489 43.4944 70.5741C43.4944 69.26 42.1591 68.8741 41.119 68.6427Z" fill="#D9D9D9"/>
<path d="M37.7958 64.066C37.7958 65.0333 38.5113 65.591 39.9587 65.8821V62.424C38.6438 62.4641 37.7958 63.2352 37.7958 64.066Z" fill="#D9D9D9"/>
<path d="M40.5 55.848C34.0589 55.848 28.8174 61.0887 28.8174 67.5298C28.8174 73.9708 34.0589 79.2107 40.5 79.2107C46.9411 79.2107 52.1834 73.9717 52.1834 67.5298C52.1834 61.0879 46.9411 55.848 40.5 55.848ZM41.119 74.4369V75.6349C41.119 75.9636 40.8655 76.2915 40.5376 76.2915C40.2097 76.2915 39.9587 75.9644 39.9587 75.6349V74.4369C36.696 74.3601 35.0721 72.409 35.0721 70.8815C35.0721 70.1113 35.5349 69.6664 36.2692 69.6664C38.432 69.6664 36.7508 72.3322 39.9587 72.4671V68.4301C37.0983 67.9092 35.3632 66.654 35.3632 64.5092C35.3632 61.8835 37.5448 60.531 39.9587 60.4542V59.4255C39.9587 59.0959 40.2097 58.768 40.5376 58.768C40.8655 58.768 41.119 59.0959 41.119 59.4255V60.4542C42.6228 60.4942 45.7129 61.4379 45.7129 63.3325C45.7129 64.0856 45.1519 64.528 44.4961 64.528C43.2409 64.528 43.2581 62.4641 41.1198 62.424V66.0931C43.6694 66.6344 45.9271 67.3867 45.9271 70.3631C45.9271 72.9503 43.9941 74.2644 41.119 74.4369Z" fill="#D9D9D9"/>
</svg>
